<svg version="1.1" xmlns="http://www.w3.org/2000/svg" width="512" height="512">

<path d="M0 0 C8.6328605 5.20161785 11.84602452 12.50212419 14.23217773 21.88842773 C14.81855433 24.38021356 15.38111643 26.87635345 15.9375 29.375 C17.57264299 36.57346904 19.56007523 43.51445404 21.9375 50.5 C25.57552889 61.55122108 26.3231281 70.79985858 21.328125 81.63671875 C18.91016476 85.70177577 15.93468371 88.9944366 12.61328125 92.34375 C8.87319738 96.39979381 8.20770302 99.73281654 8.33984375 105.11865234 C8.81303404 109.07027744 10.33311355 112.29419353 12.125 115.8125 C12.4859375 116.54670166 12.846875 117.28090332 13.21875 118.03735352 C28.20614025 147.82674313 57.24611228 177.70703743 89.625 188.5 C94.04654804 189.01374177 97.55363186 189.04708161 101.5625 187 C103.34241082 185.54701158 105.11403298 184.08351118 106.86328125 182.59375 C116.74259678 174.35842632 124.67674938 171.37202172 137.625 172.5 C142.64773097 173.59817818 147.49721455 175.14165122 152.375 176.75 C155.01286841 177.59086534 157.65466782 178.41897784 160.296875 179.24609375 C161.55564453 179.6416748 162.81441406 180.03725586 164.11132812 180.44482422 C169.80179337 182.15370351 175.54935261 183.40385692 181.375 184.55078125 C186.53088614 186.05664703 190.43445033 188.84475822 193.875 192.9375 C194.35453125 193.49308594 194.8340625 194.04867187 195.328125 194.62109375 C198.21855783 198.80873891 198.95815711 202.64835233 199.0625 207.6875 C199.10246094 208.73292969 199.14242188 209.77835938 199.18359375 210.85546875 C197.59605566 221.21332217 190.85509255 228.06578109 183.65307617 235.1237793 C182.07172229 236.67843342 180.51878083 238.25788415 178.96679688 239.84179688 C167.50418839 251.34419863 155.2743662 258.67316234 138.6875 258.875 C87.24284758 258.37939788 38.18538182 233.41665894 1.625 198.5 C0.69945312 197.62730469 -0.22609375 196.75460937 -1.1796875 195.85546875 C-8.33057935 188.93753796 -14.46502512 181.4874206 -20.375 173.5 C-20.77460938 172.96117187 -21.17421875 172.42234375 -21.5859375 171.8671875 C-46.58174967 137.81249038 -64.68800329 92.25440003 -61.375 49.5 C-58.81784262 35.63589374 -49.81059561 25.2405308 -40.08740234 15.63598633 C-38.49285419 14.05541683 -36.92397822 12.4520698 -35.35546875 10.84570312 C-25.64769927 1.05958913 -14.15151794 -6.15522334 0 0 Z M-18.09765625 17.546875 C-18.79552246 18.18149658 -19.49338867 18.81611816 -20.21240234 19.4699707 C-23.70671507 22.75008024 -27.16053371 26.06157747 -30.5625 29.4375 C-31.59020508 30.43426758 -31.59020508 30.43426758 -32.63867188 31.45117188 C-40.6435803 39.39444482 -45.31873079 46.93235037 -45.75 58.4375 C-44.94552 105.80126 -21.4827925 150.863265 10.625 184.5 C11.42550781 185.35335937 12.22601563 186.20671875 13.05078125 187.0859375 C44.66830829 219.89364968 92.71530176 241.70208172 138.3125 242.875 C153.64996927 242.42601085 162.31402521 233.15128955 172.625 222.6875 C173.48222656 221.82962891 174.33945312 220.97175781 175.22265625 220.08789062 C180.77519909 214.99157357 180.77519909 214.99157357 182.9375 208.125 C182.95202009 204.54773615 182.95202009 204.54773615 181.04321289 202.3984375 C177.97999714 199.99363531 175.41144049 199.37580444 171.62109375 198.5 C170.60330589 198.25636719 170.60330589 198.25636719 169.56495667 198.0078125 C167.40040868 197.49162039 165.23206711 196.99463135 163.0625 196.5 C160.22577435 195.84198504 157.3913456 195.17491275 154.55859375 194.5 C153.87293839 194.33758316 153.18728302 194.17516632 152.48085022 194.00782776 C147.45443784 192.78452912 142.67192522 191.20217337 137.87451172 189.27709961 C133.25128132 187.67999278 129.34030407 187.9160667 124.6875 189.5 C121.9064473 191.31619768 119.688317 193.19925003 117.25 195.4375 C109.02172105 202.98587057 101.44354942 204.95003671 90.41015625 204.8359375 C68.02867472 202.84955214 45.06884594 182.6193954 29.625 167.5 C28.89023438 166.81550781 28.15546875 166.13101563 27.3984375 165.42578125 C13.41055348 152.134505 -6.09188704 127.20150308 -7.61328125 107.3984375 C-7.89950232 93.81046885 -4.05907107 86.66410782 4.625 76.5 C8.45222913 71.7226235 9.17523516 67.56490549 8.625 61.5 C7.84037408 58.76493873 7.0031665 56.2103429 6 53.5625 C2.84871996 44.81020157 0.72094719 35.92600278 -1.19384766 26.82836914 C-1.42120605 25.80477295 -1.64856445 24.78117676 -1.8828125 23.7265625 C-2.07504395 22.81471191 -2.26727539 21.90286133 -2.46533203 20.96337891 C-3.57143742 17.96804789 -4.90992935 16.50525881 -7.375 14.5 C-12.23998099 13.47086941 -14.56057758 14.32115407 -18.09765625 17.546875 Z " fill="#000000" transform="translate(190.375,124.5)" data-index="1" style="visibility: hidden;"></path>

<path d="M0 0 C1.25006836 0.24943359 1.25006836 0.24943359 2.52539062 0.50390625 C22.39120135 4.50970826 41.20180096 11.33279638 59 21 C59.66193359 21.35175293 60.32386719 21.70350586 61.00585938 22.06591797 C76.04828721 30.07295192 89.21044396 39.78299892 102 51 C102.92039062 51.79664063 103.84078125 52.59328125 104.7890625 53.4140625 C109.97353831 57.97201555 114.57380881 62.71417663 119 68 C119.80953125 68.91007812 120.6190625 69.82015625 121.453125 70.7578125 C151.82179683 105.13108365 171.76946162 152.56585955 172.23828125 198.71484375 C172.2480751 199.51967697 172.25786896 200.32451019 172.26795959 201.1537323 C172.4478955 219.79327841 172.08315318 237.72124071 168 256 C167.68651611 257.41587402 167.68651611 257.41587402 167.36669922 258.86035156 C159.73376244 292.0564796 143.68719712 321.93510879 122 348 C121.49597656 348.62648438 120.99195313 349.25296875 120.47265625 349.8984375 C117.25369822 353.87315089 117.25369822 353.87315089 115 355 C111.20122401 355.35173852 108.85639847 355.52701444 105.5625 353.5 C103.41742336 350.06787737 103.35557701 346.90386876 104 343 C105.9140625 340.11328125 105.9140625 340.11328125 108.625 337.3125 C130.02040053 313.91415592 143.94092897 283.70602109 151 253 C151.29414795 251.76080811 151.29414795 251.76080811 151.59423828 250.49658203 C161.16076517 208.56187179 155.00917528 162.3555815 136 124 C135.65743164 123.29327148 135.31486328 122.58654297 134.96191406 121.85839844 C112.70950402 76.25443788 71.83059769 41.17276896 24.26782227 24.06982422 C-24.81419392 7.28655177 -79.44091478 10.24858659 -126.12231445 32.9140625 C-140.70667271 40.14158701 -154.67178119 48.39257803 -166.84570312 59.26782227 C-174.0306411 65.64411061 -174.0306411 65.64411061 -178.5 65.875 C-182.39080206 64.90229949 -183.89621216 64.41865525 -186 61 C-186.5625 57.5625 -186.5625 57.5625 -186 54 C-184.0625 51.5625 -184.0625 51.5625 -181 49 C-180.42636719 48.45085937 -179.85273438 47.90171875 -179.26171875 47.3359375 C-166.86156633 35.63404609 -152.08628354 26.76602315 -137 19 C-136.36384766 18.67161133 -135.72769531 18.34322266 -135.07226562 18.00488281 C-118.34400192 9.49853405 -100.32202599 3.8739245 -82 0 C-81.24895996 -0.16516113 -80.49791992 -0.33032227 -79.72412109 -0.50048828 C-54.68760827 -5.76932569 -24.97320395 -5.35290616 0 0 Z " fill="#000000" transform="translate(299,44)" data-index="3" style="visibility: hidden;"></path>
</svg>