<?xml version="1.0" encoding="UTF-8"?>
<svg version="1.1" xmlns="http://www.w3.org/2000/svg" width="512" height="512">
<path d="M0 0 C1.01301178 0.00087616 2.02602356 0.00175232 3.06973267 0.00265503 C66.95777836 0.18445003 126.5804813 24.24387737 173.55859375 67.4296875 C175.66534813 69.37975873 175.66534813 69.37975873 177.84765625 70.8203125 C180.17069115 72.71880919 181.22802007 74.80083496 182.75 77.375 C184.20800934 78.89557318 185.71250487 80.37234628 187.25 81.8125 C193.40521328 87.85140838 198.58993102 94.48057969 203.75 101.375 C204.17812988 101.94234863 204.60625977 102.50969727 205.04736328 103.09423828 C215.63267735 117.19848707 224.24502861 132.43742932 231.75 148.375 C232.26046875 149.45394531 232.7709375 150.53289062 233.296875 151.64453125 C241.43423255 169.73483956 247.06294013 188.91432643 250.75 208.375 C250.99556641 209.58905518 250.99556641 209.58905518 251.24609375 210.82763672 C257.11542827 240.85946921 256.03637252 275.52190675 249.75 305.375 C249.42854004 306.921875 249.42854004 306.921875 249.10058594 308.5 C241.29416833 344.86177052 225.40023692 380.53036829 201.75 409.375 C201.04746094 410.26832031 200.34492188 411.16164063 199.62109375 412.08203125 C158.03031451 464.39603166 95.45470636 499.33974687 29.01464844 507.125 C28.26731445 507.2075 27.51998047 507.29 26.75 507.375 C25.95883789 507.4678125 25.16767578 507.560625 24.35253906 507.65625 C15.79178392 508.55975978 7.22369501 508.6183807 -1.375 508.625 C-2.16723969 508.62567474 -2.95947937 508.62634949 -3.77572632 508.62704468 C-17.7736372 508.60822011 -31.43423379 507.76340799 -45.25 505.375 C-46.1898877 505.21402832 -47.12977539 505.05305664 -48.09814453 504.88720703 C-69.99055666 500.97341671 -91.14160301 493.78833254 -111.23828125 484.3203125 C-111.93646973 483.99192383 -112.6346582 483.66353516 -113.35400391 483.32519531 C-115.25 482.375 -115.25 482.375 -118.16796875 480.5546875 C-125.47740007 477.7569077 -134.33139316 480.94735729 -141.63061523 482.88769531 C-142.61592728 483.14315628 -143.60123932 483.39861725 -144.6164093 483.66181946 C-147.84903489 484.50182264 -151.07877879 485.3523851 -154.30859375 486.203125 C-156.58032104 486.79571281 -158.85222057 487.38764071 -161.12428284 487.97894287 C-167.09780891 489.53545781 -173.06893938 491.10097577 -179.03961182 492.668396 C-185.05817468 494.2466739 -191.07899238 495.81629872 -197.09960938 497.38671875 C-204.94700518 499.43474872 -212.79391457 501.48460841 -220.63908482 503.54114914 C-222.65477641 504.06949121 -224.67061289 504.59728089 -226.68660641 505.12446976 C-231.40887021 506.36067187 -236.12750855 507.60826069 -240.83987427 508.88171387 C-241.71556848 509.11684566 -242.59126268 509.35197746 -243.49349308 509.59423447 C-245.12294136 510.03236698 -246.75134603 510.47440793 -248.37844753 510.92117691 C-251.82612698 511.84533556 -254.65150675 512.375 -258.25 512.375 C-257.65798735 506.72237565 -256.6170372 501.46812955 -255.07617188 496.00415039 C-254.85639679 495.2074292 -254.6366217 494.41070801 -254.41018677 493.58984375 C-253.68499192 490.96595149 -252.95188447 488.34434011 -252.21875 485.72265625 C-251.7031433 483.86272592 -251.18805751 482.00265112 -250.67346191 480.1424408 C-249.3140441 475.23335426 -247.94801715 470.32613157 -246.58044434 465.41931152 C-245.22452485 460.55071746 -243.87408102 455.6806067 -242.5234375 450.81054688 C-242.25949692 449.85937674 -241.99555634 448.9082066 -241.72361755 447.92821312 C-240.40559681 443.17816681 -239.08893084 438.42775106 -237.7746582 433.67666626 C-237.26000669 431.81713734 -236.74527767 429.95762988 -236.23046875 428.09814453 C-235.98011368 427.19370417 -235.72975861 426.2892638 -235.47181702 425.35741615 C-234.03617272 420.18035274 -232.58205015 415.00901117 -231.10845184 409.84262562 C-230.23501562 406.77478204 -229.3716652 403.70415503 -228.51008606 400.63296318 C-228.11335924 399.22901685 -227.71179945 397.82642553 -227.30497742 396.42537117 C-226.75148434 394.51816876 -226.21611479 392.60573463 -225.68164062 390.69311523 C-225.22754822 389.10453957 -225.22754822 389.10453957 -224.76428223 387.48387146 C-223.67844604 380.91991695 -225.6748787 375.92055591 -228.75 370.25 C-239.59835867 349.28343684 -247.33466361 327.70401494 -252.0625 304.5625 C-252.2574707 303.61020508 -252.45244141 302.65791016 -252.65332031 301.67675781 C-255.71107965 285.75160202 -256.63119562 269.93718725 -256.5625 253.75 C-256.56034485 252.83057617 -256.5581897 251.91115234 -256.55596924 250.96386719 C-256.41183643 212.53289546 -248.08885297 175.97262621 -231.25 141.375 C-230.89180176 140.63797852 -230.53360352 139.90095703 -230.16455078 139.14160156 C-219.44249476 117.38343386 -205.05007919 97.8179775 -188.25 80.375 C-187.61787598 79.71564453 -186.98575195 79.05628906 -186.33447266 78.37695312 C-177.70362862 69.42161058 -168.97398161 60.96270816 -158.9296875 53.60595703 C-157.2529241 52.37714293 -155.59512847 51.12555492 -153.9375 49.87109375 C-139.81969878 39.33876586 -124.20643698 30.78307424 -108.25 23.375 C-107.55036133 23.04935059 -106.85072266 22.72370117 -106.12988281 22.38818359 C-84.561039 12.50045479 -61.65411758 6.10561924 -38.25 2.375 C-37.08919922 2.18953613 -35.92839844 2.00407227 -34.73242188 1.81298828 C-23.16354064 0.16134337 -11.67313874 -0.02471175 0 0 Z M-137.25 92.375 C-138.06597656 93.08011719 -138.88195312 93.78523438 -139.72265625 94.51171875 C-181.1415672 131.07326138 -207.54198786 182.12659513 -212.25 237.375 C-212.57141606 242.74700793 -212.59211534 248.12053962 -212.5625 253.5 C-212.56034485 254.21388885 -212.5581897 254.92777771 -212.55596924 255.66329956 C-212.36900551 294.5436506 -201.59580936 336.95083134 -177.69921875 368.3125 C-173.85344266 376.43942305 -179.17480216 388.04971083 -181.50390625 396.34765625 C-181.92906466 397.88162317 -182.35361023 399.41576007 -182.77757263 400.95005798 C-183.88773561 404.96133806 -185.0061365 408.97027463 -186.12634277 412.97875977 C-187.2709105 417.08014444 -188.40756993 421.18371905 -189.54492188 425.28710938 C-191.77226888 433.31855499 -194.00833455 441.3475391 -196.25 449.375 C-193.10369895 450.94815053 -190.77920685 449.63870435 -187.43286133 448.74438477 C-186.73180267 448.55921295 -186.03074402 448.37404114 -185.30844116 448.18325806 C-183.78252918 447.77929576 -182.25747878 447.37206838 -180.73319435 446.96200752 C-178.31753027 446.31250737 -175.89961923 445.67211294 -173.48088074 445.03416443 C-167.46921123 443.44671321 -161.46133661 441.84510772 -155.45410156 440.2409668 C-150.38661725 438.88798612 -145.31741569 437.54186425 -140.24555016 436.20539665 C-137.86909095 435.57621798 -135.49547866 434.93700307 -133.1217804 434.29750061 C-131.65269651 433.90947651 -130.18348015 433.52195349 -128.71411133 433.13500977 C-127.43885086 432.7944606 -126.16359039 432.45391144 -124.84968567 432.1030426 C-119.83485923 431.08878535 -114.98668887 430.319894 -110.55078125 433.24609375 C-109.90987549 433.65110107 -109.26896973 434.0561084 -108.60864258 434.47338867 C-107.93341553 434.91529541 -107.25818848 435.35720215 -106.5625 435.8125 C-60.1245239 464.48770723 -2.94254707 470.41766722 49.5859375 458.17285156 C104.35145896 444.36315063 152.3114933 408.92361362 181.6640625 360.7109375 C210.41273159 311.93140933 217.80851531 255.1285986 204.21533203 200.3371582 C194.51004857 163.21166683 175.00676095 131.99133433 148.75 104.375 C147.83347656 103.39660156 147.83347656 103.39660156 146.8984375 102.3984375 C109.0911424 63.15769045 53.87647513 43.77695736 0.390625 42.31030273 C-49.75537437 41.82684729 -99.3554882 59.56461927 -137.25 92.375 Z " fill="#000000" transform="translate(258.25,-0.375)"/>
<path d="M0 0 C1.23556641 -0.00483398 1.23556641 -0.00483398 2.49609375 -0.00976562 C8.07997133 0.03968901 12.21315958 0.24479837 16.3125 4.40625 C18.74448562 8.05422842 20.49850129 11.80173385 22.25 15.8125 C22.62519775 16.65820557 23.00039551 17.50391113 23.38696289 18.37524414 C28.90307759 30.92137393 34.08208487 43.61987912 39.25 56.3125 C39.62133057 57.18914307 39.99266113 58.06578613 40.37524414 58.96899414 C42.07491846 63.52248947 42.00044911 67.25289737 40.36328125 71.74609375 C36.17911695 80.20237776 29.77823507 86.97758171 23.46166992 93.88305664 C21.70462238 95.95589834 21.25847196 97.24472429 20.91796875 99.96875 C21.36050309 104.4253311 23.13014864 107.12722845 25.5625 110.8125 C26.01326904 111.51101074 26.46403809 112.20952148 26.9284668 112.92919922 C46.11158861 142.16219872 71.99735756 164.01022312 103.875 178.375 C104.52573486 178.67422363 105.17646973 178.97344727 105.84692383 179.28173828 C109.79272755 180.99454203 112.95737917 181.7819089 117.25 181.3125 C124.70247007 176.50979707 129.79184044 168.48627362 135.16796875 161.5546875 C135.65950439 160.92296631 136.15104004 160.29124512 136.6574707 159.64038086 C137.62035723 158.40004973 138.5786962 157.15617206 139.53198242 155.90844727 C141.63983288 153.18546985 143.35813395 151.2404107 146.25 149.3125 C153.27173412 148.94502819 159.28741467 151.19422148 165.5 154.1875 C166.34191895 154.57808594 167.18383789 154.96867188 168.05126953 155.37109375 C172.81851252 157.60461755 177.52873126 159.94473063 182.2265625 162.3203125 C183.70334473 163.06692139 183.70334473 163.06692139 185.20996094 163.82861328 C187.11656792 164.79916246 189.01850483 165.77895518 190.91503906 166.76904297 C195.44147306 169.09422003 199.15649546 170.65600386 204.25 171.3125 C206.55078125 172.43359375 206.55078125 172.43359375 208.5625 173.75 C209.23925781 174.18183594 209.91601562 174.61367188 210.61328125 175.05859375 C212.25 176.3125 212.25 176.3125 213.25 178.3125 C214.56180185 191.7530927 211.98998054 207.63247893 203.25 218.3125 C191.8463633 230.70876095 174.9599589 239.48578387 158.06494141 240.43530273 C112.5294105 241.99421945 65.71973 216.95246174 32.25 187.3125 C31.72051758 186.84618164 31.19103516 186.37986328 30.64550781 185.89941406 C18.92816196 175.52119345 8.14973892 164.20834451 -1.6171875 151.97265625 C-3.90174264 149.12323858 -6.2604808 146.34581335 -8.625 143.5625 C-30.21884345 117.61640903 -49.4150951 87.39400966 -46.75 52.3125 C-44.45311431 34.43109845 -34.96817938 15.73807869 -20.65112305 4.56469727 C-14.35894884 0.42028202 -7.33512419 -0.14623453 0 0 Z " fill="#000000" transform="translate(173.75,134.6875)"/>
</svg>
